<?xml version="1.0" standalone="no"?><!DOCTYPE svg PUBLIC "-//W3C//DTD SVG 1.1//EN" "http://www.w3.org/Graphics/SVG/1.1/DTD/svg11.dtd"><svg width="100%" height="100%" viewBox="0 0 615 175" version="1.1" xmlns="http://www.w3.org/2000/svg" xmlns:xlink="http://www.w3.org/1999/xlink" xml:space="preserve" style="fill-rule:evenodd;clip-rule:evenodd;stroke-linejoin:round;stroke-miterlimit:1.41421;"><g><g id="g5145"><g id="g4578"><path id="path5094" d="M63.698,174.666l62.952,-16.097l14.015,-69.176l-47.62,-14.951l-66.446,6.645" style="fill:#ffc500;"/><path id="path5096" d="M26.636,80.88l27.682,26.789l9.38,66.997l-22.998,-33.063" style="fill:#ff8000;"/><path id="path5098" d="M26.599,81.087l66.446,-6.645l47.62,14.951l-86.38,18.273" style="fill:#000;"/><path id="path5100" d="M78.875,155.221l52.931,-21.53l8.685,-43.881l-86.206,17.856" style="fill:#ff8000;"/><path id="path5102" d="M81.777,147.63l68.76,-35.273l-9.872,-22.964l-86.38,18.273" style="fill:#ff0;"/><path id="path5104" d="M54.285,107.666l-29.435,22.105l-24.111,-45.319l25.86,-3.365" style="fill:#ffb000;"/><path id="path5106" d="M93.045,74.442l-15.956,-16.11l-66.081,13.841l15.591,8.914" style="fill:#fedc00;"/><path id="path5108" d="M140.665,89.393l21.258,-18.336l-60.723,-9.153l-8.155,12.538" style="fill:#fedc00;"/></g><g id="g20830"><path id="rect11882" d="M102.694,14.086l-32.905,14.584l14.583,32.905l32.906,-14.583l-14.584,-32.906Z" style="fill:#5ac4fe;"/><path id="path10124" d="M52.201,94.086c-8.722,-7.573 -9.815,-20.718 -2.463,-29.627c7.351,-8.908 20.466,-10.33 29.555,-3.203c9.09,7.126 10.839,20.201 3.942,29.466c-6.897,9.265 -19.924,11.34 -29.359,4.677" style="fill:#fe0000;"/><path id="path11890" d="M115.474,85.517l-13.983,-16.817l-13.983,-16.816l21.555,-3.701l21.555,-3.702l-7.572,20.518l-7.572,20.518Z" style="fill:#5afe00;"/><path id="rect11884" d="M143.555,24.054l-21.756,28.672l28.673,21.756l21.756,-28.672l-28.673,-21.756Z" style="fill:#5ac4fe;"/><path id="path11872" d="M169.654,48.154c-8.722,-7.572 -9.815,-20.718 -2.463,-29.626c7.352,-8.909 20.466,-10.33 29.556,-3.204c9.089,7.127 10.838,20.202 3.941,29.467c-6.897,9.265 -19.924,11.34 -29.358,4.677" style="fill:#5afe00;"/><path id="path11886" d="M154.646,41.317l-21.664,-2.997l-21.664,-2.996l13.427,-17.264l13.427,-17.263l8.237,20.26l8.237,20.26Z" style="fill:#fe0000;"/></g></g><g transform="matrix(1.61727,0,0,1.61727,-213.838,99.0078)"><text x="231.287px" y="32.286px" style="font-family:Montserrat;font-size:64px;font-weight:700;fill:#074f66;">Py</text><text x="308.151px" y="32.286px" style="font-family:Montserrat;font-size:64px;font-weight:700;fill:#ffc500;">T<tspan x="342.967px " y="32.286px ">a</tspan>bles</text></g></g></svg>